<svg xmlns="http://www.w3.org/2000/svg" width="1280" height="800" viewBox="0 0 1280 800" font-family="Geist, Arial, sans-serif">
  <rect width="1280" height="800" fill="#0E0E10"/>
  <rect width="1280" height="60" fill="#0B0B0D"/>
  <circle cx="30" cy="30" r="6" fill="#3a3a3e"/><circle cx="52" cy="30" r="6" fill="#3a3a3e"/><circle cx="74" cy="30" r="6" fill="#3a3a3e"/>
  <text x="120" y="35" fill="#8a8a90" font-size="15">Releases · Review</text>
  <text x="64" y="124" fill="#FAFAF7" font-size="40" font-weight="700">A human signs off every release</text>
  <text x="64" y="158" fill="#6b6862" font-size="18">AI does the work; a senior engineer reviews and approves before it ships.</text>
  <!-- review list -->
  <rect x="64" y="196" width="1152" height="524" rx="16" fill="#161618" stroke="#2a2a2e"/>
  <text x="92" y="236" fill="#FAFAF7" font-size="16" font-weight="600">Pending &amp; recent reviews</text>

  <!-- row 1 (approved) -->
  <line x1="92" y1="262" x2="1188" y2="262" stroke="#222226"/>
  <circle cx="118" cy="300" r="16" fill="#C9A961" opacity="0.2"/>
  <path d="M110 300 l5 6 l10 -13" stroke="#C9A961" stroke-width="3" fill="none" stroke-linecap="round"/>
  <rect x="156" y="286" width="360" height="13" rx="6" fill="#cfcfd4"/>
  <rect x="156" y="312" width="240" height="10" rx="5" fill="#4a4a50"/>
  <rect x="1040" y="288" width="100" height="26" rx="13" fill="#C9A961" opacity="0.16"/>
  <text x="1090" y="305" fill="#C9A961" font-size="12" font-weight="700" text-anchor="middle">Approved</text>

  <!-- row 2 (approved) -->
  <line x1="92" y1="356" x2="1188" y2="356" stroke="#222226"/>
  <circle cx="118" cy="394" r="16" fill="#C9A961" opacity="0.2"/>
  <path d="M110 394 l5 6 l10 -13" stroke="#C9A961" stroke-width="3" fill="none" stroke-linecap="round"/>
  <rect x="156" y="380" width="300" height="13" rx="6" fill="#cfcfd4"/>
  <rect x="156" y="406" width="280" height="10" rx="5" fill="#4a4a50"/>
  <rect x="1040" y="382" width="100" height="26" rx="13" fill="#C9A961" opacity="0.16"/>
  <text x="1090" y="399" fill="#C9A961" font-size="12" font-weight="700" text-anchor="middle">Approved</text>

  <!-- row 3 (in review) -->
  <line x1="92" y1="450" x2="1188" y2="450" stroke="#222226"/>
  <circle cx="118" cy="488" r="16" fill="#1f1f22" stroke="#3a3a3e"/>
  <rect x="156" y="474" width="420" height="13" rx="6" fill="#9a9aa0"/>
  <rect x="156" y="500" width="200" height="10" rx="5" fill="#4a4a50"/>
  <rect x="1020" y="476" width="120" height="26" rx="13" fill="#161618" stroke="#3a3a3e"/>
  <text x="1080" y="493" fill="#8a8a90" font-size="12" font-weight="700" text-anchor="middle">In review</text>

  <!-- row 4 -->
  <line x1="92" y1="544" x2="1188" y2="544" stroke="#222226"/>
  <circle cx="118" cy="582" r="16" fill="#1f1f22" stroke="#3a3a3e"/>
  <rect x="156" y="568" width="260" height="13" rx="6" fill="#9a9aa0"/>
  <rect x="156" y="594" width="320" height="10" rx="5" fill="#4a4a50"/>
  <rect x="1020" y="570" width="120" height="26" rx="13" fill="#161618" stroke="#3a3a3e"/>
  <text x="1080" y="587" fill="#8a8a90" font-size="12" font-weight="700" text-anchor="middle">In review</text>

  <text x="1264" y="788" fill="#33333a" font-size="13" text-anchor="end">MOCK · replace /public/laptop/feature-4.svg</text>
</svg>
