<svg xmlns="http://www.w3.org/2000/svg" width="1280" height="800" viewBox="0 0 1280 800" font-family="Geist, Arial, sans-serif">
  <rect width="1280" height="800" fill="#0E0E10"/>
  <rect width="1280" height="60" fill="#0B0B0D"/>
  <circle cx="30" cy="30" r="6" fill="#3a3a3e"/><circle cx="52" cy="30" r="6" fill="#3a3a3e"/><circle cx="74" cy="30" r="6" fill="#3a3a3e"/>
  <text x="120" y="35" fill="#8a8a90" font-size="15">AI Support Agent</text>
  <rect x="1100" y="15" width="140" height="30" rx="15" fill="#C9A961" opacity="0.16"/>
  <circle cx="1120" cy="30" r="5" fill="#C9A961"/>
  <text x="1180" y="35" fill="#C9A961" font-size="13" font-weight="700" text-anchor="middle">online</text>
  <!-- sidebar: conversations -->
  <rect x="0" y="60" width="300" height="740" fill="#0B0B0D"/>
  <text x="24" y="100" fill="#FAFAF7" font-size="16" font-weight="700">Conversations</text>
  <g>
    <rect x="16" y="120" width="268" height="64" rx="10" fill="#161618"/>
    <rect x="16" y="124" width="3" height="56" fill="#C9A961"/>
    <circle cx="48" cy="152" r="16" fill="#1f1f22"/>
    <rect x="78" y="138" width="120" height="11" rx="5" fill="#cfcfd4"/>
    <rect x="78" y="160" width="180" height="9" rx="4" fill="#4a4a50"/>
    <rect x="16" y="196" width="268" height="64" rx="10" fill="#0E0E10"/>
    <circle cx="48" cy="228" r="16" fill="#1f1f22"/>
    <rect x="78" y="214" width="100" height="11" rx="5" fill="#6b6862"/>
    <rect x="78" y="236" width="160" height="9" rx="4" fill="#3a3a3e"/>
    <rect x="16" y="272" width="268" height="64" rx="10" fill="#0E0E10"/>
    <circle cx="48" cy="304" r="16" fill="#1f1f22"/>
    <rect x="78" y="290" width="130" height="11" rx="5" fill="#6b6862"/>
    <rect x="78" y="312" width="150" height="9" rx="4" fill="#3a3a3e"/>
  </g>
  <!-- chat thread -->
  <text x="340" y="120" fill="#FAFAF7" font-size="34" font-weight="700">Fixed before they notice</text>
  <text x="340" y="154" fill="#6b6862" font-size="17">Your agent edits content and resolves issues 24/7 — you stay in the loop.</text>
  <!-- incoming bubble -->
  <rect x="340" y="200" width="520" height="80" rx="16" fill="#161618"/>
  <rect x="364" y="224" width="380" height="11" rx="5" fill="#9a9aa0"/>
  <rect x="364" y="250" width="300" height="11" rx="5" fill="#6b6862"/>
  <!-- agent bubble (brass) -->
  <rect x="560" y="300" width="660" height="120" rx="16" fill="#C9A961" opacity="0.12"/>
  <circle cx="588" cy="330" r="12" fill="#C9A961"/>
  <text x="612" y="334" fill="#C9A961" font-size="13" font-weight="700">AI agent</text>
  <rect x="588" y="352" width="600" height="11" rx="5" fill="#d8c89a"/>
  <rect x="588" y="378" width="540" height="11" rx="5" fill="#b8a878"/>
  <rect x="588" y="396" width="420" height="11" rx="5" fill="#8f8458"/>
  <!-- resolved bubble -->
  <rect x="340" y="440" width="480" height="70" rx="16" fill="#161618"/>
  <circle cx="372" cy="475" r="14" fill="#C9A961" opacity="0.2"/>
  <path d="M366 475 l4 5 l8 -10" stroke="#C9A961" stroke-width="3" fill="none" stroke-linecap="round"/>
  <rect x="400" y="469" width="340" height="11" rx="5" fill="#9a9aa0"/>
  <!-- composer -->
  <rect x="340" y="700" width="880" height="56" rx="14" fill="#161618" stroke="#2a2a2e"/>
  <rect x="364" y="722" width="300" height="12" rx="6" fill="#3a3a3e"/>
  <rect x="1150" y="712" width="48" height="32" rx="8" fill="#C9A961"/>
  <text x="1264" y="788" fill="#33333a" font-size="13" text-anchor="end">MOCK · replace /public/laptop/feature-2.svg</text>
</svg>
